<svg width="122" height="28" viewBox="0 0 122 28" fill="none" xmlns="http://www.w3.org/2000/svg">
<mask id="mask0_1_42" style="mask-type:luminance" maskUnits="userSpaceOnUse" x="0" y="0" width="28" height="28">
<path d="M21.792 0H6C2.68629 0 0 2.68629 0 6V21.792C0 25.1057 2.68629 27.792 6 27.792H21.792C25.1057 27.792 27.792 25.1057 27.792 21.792V6C27.792 2.68629 25.1057 0 21.792 0Z" fill="white"/>
</mask>
<g mask="url(#mask0_1_42)">
<path d="M21.792 0H6C2.68629 0 0 2.68629 0 6V21.792C0 25.1057 2.68629 27.792 6 27.792H21.792C25.1057 27.792 27.792 25.1057 27.792 21.792V6C27.792 2.68629 25.1057 0 21.792 0Z" fill="#0B68F7"/>
<path d="M13.6748 6.34898L13.6758 6.34995C13.884 6.35317 14.0869 6.42218 14.252 6.54917L14.3672 6.65367C14.4733 6.76667 14.5515 6.90432 14.5938 7.05503L17.4717 17.2904L18.8877 13.5169L18.9492 13.3832C19.0208 13.2555 19.1209 13.145 19.2422 13.0609L19.3691 12.9867C19.5005 12.9225 19.6455 12.8891 19.793 12.889H42.1826C42.4391 12.8891 42.6848 12.9909 42.8662 13.1722L42.9307 13.2435C43.0717 13.4157 43.1504 13.6323 43.1504 13.8568C43.1503 14.0811 43.0716 14.2971 42.9307 14.4691L42.8662 14.5404C42.6848 14.7217 42.4391 14.8235 42.1826 14.8236H20.4639L18.2461 20.7367C18.1924 20.8798 18.1058 21.0073 17.9941 21.1097L17.875 21.2035C17.7474 21.288 17.6018 21.3404 17.4512 21.3578L17.2998 21.3636C17.147 21.3572 16.9983 21.3148 16.8662 21.2406L16.7402 21.1556C16.6202 21.0607 16.5253 20.9389 16.4619 20.8011L16.4092 20.6585L13.6123 10.7152L12.541 14.1449C12.4949 14.2926 12.4142 14.4263 12.3066 14.5355L12.1904 14.6361C12.0661 14.7275 11.9224 14.7875 11.7715 14.8119L11.6182 14.8236H-9.18262C-9.40715 14.8236 -9.62375 14.7459 -9.7959 14.6048L-9.86621 14.5404C-10.0476 14.359 -10.1503 14.1133 -10.1504 13.8568C-10.1504 13.6002 -10.0477 13.3537 -9.86621 13.1722L-9.7959 13.1078C-9.62376 12.9667 -9.40712 12.8891 -9.18262 12.889H10.9072L12.7383 7.02769L12.7959 6.88316C12.8653 6.74437 12.9677 6.6234 13.0947 6.5316L13.2275 6.45152C13.3648 6.38264 13.5169 6.34828 13.6719 6.34995L13.6729 6.34898H13.6748Z" fill="white"/>
<path d="M13.6758 6.34995L13.6748 6.34898H13.6729L13.6719 6.34995C13.5169 6.34828 13.3648 6.38264 13.2275 6.45152L13.0947 6.5316C12.9677 6.6234 12.8653 6.74437 12.7959 6.88316L12.7383 7.02769L10.9072 12.889H-9.18262C-9.40712 12.8891 -9.62376 12.9667 -9.7959 13.1078L-9.86621 13.1722C-10.0477 13.3537 -10.1504 13.6002 -10.1504 13.8568C-10.1503 14.1133 -10.0476 14.359 -9.86621 14.5404L-9.7959 14.6048C-9.62375 14.7459 -9.40715 14.8236 -9.18262 14.8236H11.6182L11.7715 14.8119C11.9224 14.7875 12.0661 14.7275 12.1904 14.6361L12.3066 14.5355C12.4142 14.4263 12.4949 14.2926 12.541 14.1449L13.6123 10.7152L16.4092 20.6585L16.4619 20.8011C16.5253 20.9389 16.6202 21.0607 16.7402 21.1556L16.8662 21.2406C16.9983 21.3148 17.147 21.3572 17.2998 21.3636L17.4512 21.3578C17.6018 21.3404 17.7474 21.288 17.875 21.2035L17.9941 21.1097C18.1058 21.0073 18.1924 20.8798 18.2461 20.7367L20.4639 14.8236H42.1826C42.4391 14.8235 42.6848 14.7217 42.8662 14.5404L42.9307 14.4691C43.0716 14.2971 43.1503 14.0811 43.1504 13.8568C43.1504 13.6323 43.0717 13.4157 42.9307 13.2435L42.8662 13.1722C42.6848 12.9909 42.4391 12.8891 42.1826 12.889H19.793C19.6455 12.8891 19.5005 12.9225 19.3691 12.9867L19.2422 13.0609C19.1209 13.145 19.0208 13.2555 18.9492 13.3832L18.8877 13.5169L17.4717 17.2904L14.5938 7.05503C14.5515 6.90432 14.4733 6.76667 14.3672 6.65367L14.252 6.54917C14.0869 6.42218 13.884 6.35317 13.6758 6.34995ZM13.6758 6.34995L13.6777 6.34898" stroke="white" stroke-width="0.3"/>
</g>
<path d="M44.42 21V18.74L44.62 18.78C44.4867 19.5133 44.0867 20.1 43.42 20.54C42.7667 20.98 41.98 21.2 41.06 21.2C40.1267 21.2 39.3133 20.9867 38.62 20.56C37.94 20.12 37.4133 19.5067 37.04 18.72C36.6667 17.9333 36.48 17.0067 36.48 15.94C36.48 14.86 36.6733 13.92 37.06 13.12C37.4467 12.32 37.9867 11.7 38.68 11.26C39.3867 10.82 40.2067 10.6 41.14 10.6C42.1133 10.6 42.9 10.8267 43.5 11.28C44.1133 11.7333 44.4733 12.3533 44.58 13.14L44.36 13.16V6.6H47.36V21H44.42ZM42.02 18.8C42.7267 18.8 43.3 18.5533 43.74 18.06C44.18 17.5533 44.4 16.8333 44.4 15.9C44.4 14.9667 44.1733 14.2533 43.72 13.76C43.28 13.2533 42.7 13 41.98 13C41.2867 13 40.7133 13.2533 40.26 13.76C39.82 14.2667 39.6 14.9867 39.6 15.92C39.6 16.8533 39.82 17.5667 40.26 18.06C40.7133 18.5533 41.3 18.8 42.02 18.8ZM49.7586 21V10.8H52.6986V13.2H52.7586V21H49.7586ZM52.7586 15.68L52.4986 13.26C52.7386 12.3933 53.1319 11.7333 53.6786 11.28C54.2253 10.8267 54.9053 10.6 55.7186 10.6C55.9719 10.6 56.1586 10.6267 56.2786 10.68V13.48C56.2119 13.4533 56.1186 13.44 55.9986 13.44C55.8786 13.4267 55.7319 13.42 55.5586 13.42C54.5986 13.42 53.8919 13.5933 53.4386 13.94C52.9853 14.2733 52.7586 14.8533 52.7586 15.68ZM55.618 21V17.7H58.918V21H55.618ZM65.277 21.2C64.2104 21.2 63.2704 20.9733 62.457 20.52C61.6437 20.0667 61.0037 19.44 60.537 18.64C60.0837 17.84 59.857 16.9267 59.857 15.9C59.857 14.8733 60.0837 13.96 60.537 13.16C61.0037 12.36 61.6437 11.7333 62.457 11.28C63.2704 10.8267 64.2104 10.6 65.277 10.6C66.1704 10.6 66.9704 10.7667 67.677 11.1C68.397 11.42 68.9837 11.8667 69.437 12.44C69.9037 13.0133 70.2037 13.6867 70.337 14.46H67.437C67.2904 13.9667 67.0237 13.5933 66.637 13.34C66.2637 13.0867 65.8237 12.96 65.317 12.96C64.837 12.96 64.417 13.08 64.057 13.32C63.7104 13.56 63.4437 13.9 63.257 14.34C63.0704 14.78 62.977 15.3 62.977 15.9C62.977 16.5 63.0704 17.02 63.257 17.46C63.4437 17.9 63.7104 18.24 64.057 18.48C64.417 18.72 64.837 18.84 65.317 18.84C65.8237 18.84 66.2637 18.7133 66.637 18.46C67.0237 18.2067 67.2904 17.8333 67.437 17.34H70.337C70.2037 18.1133 69.9037 18.7867 69.437 19.36C68.9837 19.9333 68.397 20.3867 67.677 20.72C66.9704 21.04 66.1704 21.2 65.277 21.2ZM71.8875 21V6.6H74.8875V21H71.8875ZM77.2781 21V10.8H80.2781V21H77.2781ZM77.1781 9.44V6.2H80.3781V9.44H77.1781ZM82.6688 21V10.8H85.6088V13.2H85.6688V21H82.6688ZM89.7688 21V14.68C89.7688 14.12 89.6221 13.7 89.3288 13.42C89.0488 13.14 88.6354 13 88.0888 13C87.6221 13 87.2021 13.1067 86.8288 13.32C86.4688 13.5333 86.1821 13.8267 85.9688 14.2C85.7688 14.5733 85.6688 15.0133 85.6688 15.52L85.4088 13.06C85.7421 12.3133 86.2288 11.72 86.8688 11.28C87.5221 10.8267 88.3221 10.6 89.2688 10.6C90.4021 10.6 91.2688 10.92 91.8688 11.56C92.4688 12.1867 92.7687 13.0333 92.7687 14.1V21H89.7688ZM94.9344 21V10.8H97.9344V21H94.9344ZM94.8344 9.44V6.2H98.0344V9.44H94.8344ZM104.906 21.2C103.839 21.2 102.899 20.9733 102.086 20.52C101.273 20.0667 100.633 19.44 100.166 18.64C99.7126 17.84 99.4859 16.9267 99.4859 15.9C99.4859 14.8733 99.7126 13.96 100.166 13.16C100.633 12.36 101.273 11.7333 102.086 11.28C102.899 10.8267 103.839 10.6 104.906 10.6C105.799 10.6 106.599 10.7667 107.306 11.1C108.026 11.42 108.613 11.8667 109.066 12.44C109.533 13.0133 109.833 13.6867 109.966 14.46H107.066C106.919 13.9667 106.653 13.5933 106.266 13.34C105.893 13.0867 105.453 12.96 104.946 12.96C104.466 12.96 104.046 13.08 103.686 13.32C103.339 13.56 103.073 13.9 102.886 14.34C102.699 14.78 102.606 15.3 102.606 15.9C102.606 16.5 102.699 17.02 102.886 17.46C103.073 17.9 103.339 18.24 103.686 18.48C104.046 18.72 104.466 18.84 104.946 18.84C105.453 18.84 105.893 18.7133 106.266 18.46C106.653 18.2067 106.919 17.8333 107.066 17.34H109.966C109.833 18.1133 109.533 18.7867 109.066 19.36C108.613 19.9333 108.026 20.3867 107.306 20.72C106.599 21.04 105.799 21.2 104.906 21.2ZM117.741 21C117.661 20.7067 117.601 20.3933 117.561 20.06C117.534 19.7267 117.521 19.34 117.521 18.9H117.441V14.08C117.441 13.6667 117.301 13.3467 117.021 13.12C116.754 12.88 116.354 12.76 115.821 12.76C115.314 12.76 114.908 12.8467 114.601 13.02C114.308 13.1933 114.114 13.4467 114.021 13.78H111.161C111.294 12.86 111.768 12.1 112.581 11.5C113.394 10.9 114.508 10.6 115.921 10.6C117.388 10.6 118.508 10.9267 119.281 11.58C120.054 12.2333 120.441 13.1733 120.441 14.4V18.9C120.441 19.2333 120.461 19.5733 120.501 19.92C120.554 20.2533 120.634 20.6133 120.741 21H117.741ZM114.181 21.2C113.168 21.2 112.361 20.9467 111.761 20.44C111.161 19.92 110.861 19.2333 110.861 18.38C110.861 17.4333 111.214 16.6733 111.921 16.1C112.641 15.5133 113.641 15.1333 114.921 14.96L117.901 14.54V16.28L115.421 16.66C114.888 16.74 114.494 16.8867 114.241 17.1C113.988 17.3133 113.861 17.6067 113.861 17.98C113.861 18.3133 113.981 18.5667 114.221 18.74C114.461 18.9133 114.781 19 115.181 19C115.808 19 116.341 18.8333 116.781 18.5C117.221 18.1533 117.441 17.7533 117.441 17.3L117.721 18.9C117.428 19.66 116.981 20.2333 116.381 20.62C115.781 21.0067 115.048 21.2 114.181 21.2Z" fill="#0E0A2F"/>
</svg>
